<mxfile host="app.diagrams.net" modified="2023-06-24T15:46:21.303Z" agent="Mozilla/5.0 (Macintosh; Intel Mac OS X 10_15_7) AppleWebKit/537.36 (KHTML, like Gecko) Chrome/114.0.0.0 Safari/537.36" etag="1OBPyp764-y5GtJPSGDG" version="21.5.0" type="device">
  <diagram id="72YvLJFX2ekcuao7Z5cQ" name="Page-1">
    <mxGraphModel dx="1122" dy="628" grid="1" gridSize="10" guides="1" tooltips="1" connect="1" arrows="1" fold="1" page="1" pageScale="1" pageWidth="850" pageHeight="1100" math="0" shadow="0">
      <root>
        <mxCell id="0" />
        <mxCell id="1" parent="0" />
        <mxCell id="eZqMwPuGun4IJBvmRAmN-4" value="" style="rounded=0;whiteSpace=wrap;html=1;" parent="1" vertex="1">
          <mxGeometry x="210" y="70" width="800" height="570" as="geometry" />
        </mxCell>
        <mxCell id="eZqMwPuGun4IJBvmRAmN-30" style="edgeStyle=none;rounded=0;orthogonalLoop=1;jettySize=auto;html=1;exitX=1;exitY=0.3333333333333333;exitDx=0;exitDy=0;exitPerimeter=0;entryX=0;entryY=0.5;entryDx=0;entryDy=0;strokeColor=default;endArrow=classic;endFill=1;" parent="1" target="eZqMwPuGun4IJBvmRAmN-15" edge="1">
          <mxGeometry relative="1" as="geometry">
            <mxPoint x="160" y="215" as="sourcePoint" />
          </mxGeometry>
        </mxCell>
        <mxCell id="N3Vy_uaF9FrjSUs3YiEy-8" style="edgeStyle=none;rounded=0;orthogonalLoop=1;jettySize=auto;html=1;exitX=1;exitY=0.3333333333333333;exitDx=0;exitDy=0;exitPerimeter=0;entryX=0;entryY=0.5;entryDx=0;entryDy=0;" parent="1" target="eZqMwPuGun4IJBvmRAmN-8" edge="1">
          <mxGeometry relative="1" as="geometry">
            <mxPoint x="160" y="215" as="sourcePoint" />
          </mxGeometry>
        </mxCell>
        <mxCell id="l7-wcFhhHc6C3cMoU6PT-16" style="rounded=0;orthogonalLoop=1;jettySize=auto;html=1;exitX=1;exitY=0.3333333333333333;exitDx=0;exitDy=0;exitPerimeter=0;entryX=0;entryY=0.5;entryDx=0;entryDy=0;" edge="1" parent="1" source="eZqMwPuGun4IJBvmRAmN-2" target="l7-wcFhhHc6C3cMoU6PT-13">
          <mxGeometry relative="1" as="geometry" />
        </mxCell>
        <mxCell id="l7-wcFhhHc6C3cMoU6PT-17" style="rounded=0;orthogonalLoop=1;jettySize=auto;html=1;exitX=1;exitY=0.3333333333333333;exitDx=0;exitDy=0;exitPerimeter=0;entryX=0;entryY=0.5;entryDx=0;entryDy=0;" edge="1" parent="1" source="eZqMwPuGun4IJBvmRAmN-2" target="l7-wcFhhHc6C3cMoU6PT-9">
          <mxGeometry relative="1" as="geometry" />
        </mxCell>
        <mxCell id="eZqMwPuGun4IJBvmRAmN-2" value="Merchant" style="shape=umlActor;verticalLabelPosition=bottom;verticalAlign=top;html=1;outlineConnect=0;" parent="1" vertex="1">
          <mxGeometry x="130" y="194" width="30" height="60" as="geometry" />
        </mxCell>
        <mxCell id="eZqMwPuGun4IJBvmRAmN-5" value="Use Case Diagram" style="text;html=1;strokeColor=none;fillColor=none;align=center;verticalAlign=middle;whiteSpace=wrap;rounded=0;fontStyle=1;fontSize=16;" parent="1" vertex="1">
          <mxGeometry x="250" y="80" width="730" height="30" as="geometry" />
        </mxCell>
        <mxCell id="eZqMwPuGun4IJBvmRAmN-8" value="Login" style="ellipse;whiteSpace=wrap;html=1;" parent="1" vertex="1">
          <mxGeometry x="310" y="100" width="100" height="50" as="geometry" />
        </mxCell>
        <mxCell id="eZqMwPuGun4IJBvmRAmN-12" style="edgeStyle=none;rounded=0;orthogonalLoop=1;jettySize=auto;html=1;exitX=0;exitY=0.5;exitDx=0;exitDy=0;entryX=1;entryY=1;entryDx=0;entryDy=0;strokeColor=default;endArrow=classic;endFill=1;dashed=1;" parent="1" source="eZqMwPuGun4IJBvmRAmN-10" target="eZqMwPuGun4IJBvmRAmN-8" edge="1">
          <mxGeometry relative="1" as="geometry">
            <mxPoint x="310" y="255" as="targetPoint" />
          </mxGeometry>
        </mxCell>
        <mxCell id="eZqMwPuGun4IJBvmRAmN-10" value="Logout" style="ellipse;whiteSpace=wrap;html=1;" parent="1" vertex="1">
          <mxGeometry x="480" y="130" width="100" height="50" as="geometry" />
        </mxCell>
        <mxCell id="eZqMwPuGun4IJBvmRAmN-14" value="≪extend≫" style="text;html=1;strokeColor=none;fillColor=none;align=center;verticalAlign=middle;whiteSpace=wrap;rounded=0;rotation=30;" parent="1" vertex="1">
          <mxGeometry x="380" y="169" width="60" height="30" as="geometry" />
        </mxCell>
        <mxCell id="eZqMwPuGun4IJBvmRAmN-15" value="Mengelola Data Akun Payment Gateway&amp;nbsp;" style="ellipse;whiteSpace=wrap;html=1;" parent="1" vertex="1">
          <mxGeometry x="250" y="540" width="140" height="60" as="geometry" />
        </mxCell>
        <mxCell id="eZqMwPuGun4IJBvmRAmN-67" style="edgeStyle=none;rounded=0;orthogonalLoop=1;jettySize=auto;html=1;exitX=0;exitY=0;exitDx=0;exitDy=0;entryX=0.5;entryY=1;entryDx=0;entryDy=0;strokeColor=default;endArrow=classic;endFill=1;dashed=1;" parent="1" source="eZqMwPuGun4IJBvmRAmN-66" target="eZqMwPuGun4IJBvmRAmN-8" edge="1">
          <mxGeometry relative="1" as="geometry">
            <mxPoint x="260" y="280" as="targetPoint" />
          </mxGeometry>
        </mxCell>
        <mxCell id="eZqMwPuGun4IJBvmRAmN-66" value="Melihat Dashboard" style="ellipse;whiteSpace=wrap;html=1;" parent="1" vertex="1">
          <mxGeometry x="450" y="199" width="100" height="50" as="geometry" />
        </mxCell>
        <mxCell id="l7-wcFhhHc6C3cMoU6PT-8" value="Mengelola Data &lt;br&gt;Tipe Metode &lt;br&gt;Pembayaran" style="ellipse;whiteSpace=wrap;html=1;" vertex="1" parent="1">
          <mxGeometry x="830" y="540" width="140" height="60" as="geometry" />
        </mxCell>
        <mxCell id="l7-wcFhhHc6C3cMoU6PT-9" value="Mengelola Data Transaksi" style="ellipse;whiteSpace=wrap;html=1;" vertex="1" parent="1">
          <mxGeometry x="285" y="440" width="140" height="60" as="geometry" />
        </mxCell>
        <mxCell id="l7-wcFhhHc6C3cMoU6PT-12" value="Mengelola Data&amp;nbsp; &lt;br&gt;Payment Gateway Provider" style="ellipse;whiteSpace=wrap;html=1;" vertex="1" parent="1">
          <mxGeometry x="810" y="470" width="140" height="60" as="geometry" />
        </mxCell>
        <mxCell id="l7-wcFhhHc6C3cMoU6PT-13" value="Mengelola &lt;br&gt;Data Merchant" style="ellipse;whiteSpace=wrap;html=1;" vertex="1" parent="1">
          <mxGeometry x="390" y="350" width="140" height="60" as="geometry" />
        </mxCell>
        <mxCell id="l7-wcFhhHc6C3cMoU6PT-24" style="rounded=0;orthogonalLoop=1;jettySize=auto;html=1;exitX=0;exitY=0.3333333333333333;exitDx=0;exitDy=0;exitPerimeter=0;entryX=1;entryY=0.5;entryDx=0;entryDy=0;" edge="1" parent="1" source="l7-wcFhhHc6C3cMoU6PT-15" target="eZqMwPuGun4IJBvmRAmN-15">
          <mxGeometry relative="1" as="geometry" />
        </mxCell>
        <mxCell id="l7-wcFhhHc6C3cMoU6PT-25" style="rounded=0;orthogonalLoop=1;jettySize=auto;html=1;exitX=0;exitY=0.3333333333333333;exitDx=0;exitDy=0;exitPerimeter=0;entryX=1;entryY=0.5;entryDx=0;entryDy=0;" edge="1" parent="1" source="l7-wcFhhHc6C3cMoU6PT-15" target="l7-wcFhhHc6C3cMoU6PT-9">
          <mxGeometry relative="1" as="geometry" />
        </mxCell>
        <mxCell id="l7-wcFhhHc6C3cMoU6PT-26" style="rounded=0;orthogonalLoop=1;jettySize=auto;html=1;exitX=0;exitY=0.3333333333333333;exitDx=0;exitDy=0;exitPerimeter=0;entryX=0.5;entryY=1;entryDx=0;entryDy=0;" edge="1" parent="1" source="l7-wcFhhHc6C3cMoU6PT-15" target="l7-wcFhhHc6C3cMoU6PT-13">
          <mxGeometry relative="1" as="geometry" />
        </mxCell>
        <mxCell id="l7-wcFhhHc6C3cMoU6PT-27" style="rounded=0;orthogonalLoop=1;jettySize=auto;html=1;exitX=1;exitY=0.3333333333333333;exitDx=0;exitDy=0;exitPerimeter=0;entryX=0;entryY=0.5;entryDx=0;entryDy=0;" edge="1" parent="1" source="l7-wcFhhHc6C3cMoU6PT-15" target="l7-wcFhhHc6C3cMoU6PT-12">
          <mxGeometry relative="1" as="geometry" />
        </mxCell>
        <mxCell id="l7-wcFhhHc6C3cMoU6PT-28" style="rounded=0;orthogonalLoop=1;jettySize=auto;html=1;exitX=1;exitY=0.3333333333333333;exitDx=0;exitDy=0;exitPerimeter=0;entryX=0;entryY=0.5;entryDx=0;entryDy=0;" edge="1" parent="1" source="l7-wcFhhHc6C3cMoU6PT-15" target="l7-wcFhhHc6C3cMoU6PT-8">
          <mxGeometry relative="1" as="geometry" />
        </mxCell>
        <mxCell id="l7-wcFhhHc6C3cMoU6PT-45" style="rounded=0;orthogonalLoop=1;jettySize=auto;html=1;exitX=1;exitY=0.3333333333333333;exitDx=0;exitDy=0;exitPerimeter=0;entryX=0;entryY=0.5;entryDx=0;entryDy=0;" edge="1" parent="1" source="l7-wcFhhHc6C3cMoU6PT-15" target="l7-wcFhhHc6C3cMoU6PT-44">
          <mxGeometry relative="1" as="geometry" />
        </mxCell>
        <mxCell id="l7-wcFhhHc6C3cMoU6PT-15" value="Admin" style="shape=umlActor;verticalLabelPosition=bottom;verticalAlign=top;html=1;outlineConnect=0;" vertex="1" parent="1">
          <mxGeometry x="520" y="660" width="30" height="60" as="geometry" />
        </mxCell>
        <mxCell id="l7-wcFhhHc6C3cMoU6PT-42" style="rounded=0;orthogonalLoop=1;jettySize=auto;html=1;exitX=0;exitY=0.5;exitDx=0;exitDy=0;entryX=1;entryY=0.5;entryDx=0;entryDy=0;dashed=1;" edge="1" parent="1" source="l7-wcFhhHc6C3cMoU6PT-29" target="l7-wcFhhHc6C3cMoU6PT-13">
          <mxGeometry relative="1" as="geometry" />
        </mxCell>
        <mxCell id="l7-wcFhhHc6C3cMoU6PT-29" value="Mengubah Metode Pembayaran" style="ellipse;whiteSpace=wrap;html=1;" vertex="1" parent="1">
          <mxGeometry x="620" y="350" width="140" height="60" as="geometry" />
        </mxCell>
        <mxCell id="l7-wcFhhHc6C3cMoU6PT-43" value="≪include≫" style="text;html=1;strokeColor=none;fillColor=none;align=center;verticalAlign=middle;whiteSpace=wrap;rounded=0;" vertex="1" parent="1">
          <mxGeometry x="548" y="353" width="60" height="30" as="geometry" />
        </mxCell>
        <mxCell id="l7-wcFhhHc6C3cMoU6PT-44" value="Mengelola Data &lt;br&gt;Metode Pembayaran" style="ellipse;whiteSpace=wrap;html=1;" vertex="1" parent="1">
          <mxGeometry x="760" y="390" width="140" height="60" as="geometry" />
        </mxCell>
        <mxCell id="eZqMwPuGun4IJBvmRAmN-3" value="User" style="shape=umlActor;verticalLabelPosition=bottom;verticalAlign=top;html=1;outlineConnect=0;" parent="1" vertex="1">
          <mxGeometry x="1060" y="134" width="30" height="60" as="geometry" />
        </mxCell>
        <mxCell id="eZqMwPuGun4IJBvmRAmN-23" value="Melakukan Transaksi" style="ellipse;whiteSpace=wrap;html=1;" parent="1" vertex="1">
          <mxGeometry x="765" y="130" width="100" height="50" as="geometry" />
        </mxCell>
        <mxCell id="eZqMwPuGun4IJBvmRAmN-24" style="edgeStyle=none;rounded=0;orthogonalLoop=1;jettySize=auto;html=1;exitX=0;exitY=0.3333333333333333;exitDx=0;exitDy=0;exitPerimeter=0;entryX=1;entryY=0.5;entryDx=0;entryDy=0;strokeColor=default;endArrow=classic;endFill=1;" parent="1" source="eZqMwPuGun4IJBvmRAmN-3" target="eZqMwPuGun4IJBvmRAmN-23" edge="1">
          <mxGeometry relative="1" as="geometry" />
        </mxCell>
        <mxCell id="eZqMwPuGun4IJBvmRAmN-26" value="Memilih Metode Pembayaran" style="ellipse;whiteSpace=wrap;html=1;" parent="1" vertex="1">
          <mxGeometry x="765" y="285" width="100" height="50" as="geometry" />
        </mxCell>
        <mxCell id="eZqMwPuGun4IJBvmRAmN-28" value="≪include≫" style="text;html=1;strokeColor=none;fillColor=none;align=center;verticalAlign=middle;whiteSpace=wrap;rounded=0;" parent="1" vertex="1">
          <mxGeometry x="815" y="230" width="60" height="30" as="geometry" />
        </mxCell>
        <mxCell id="eZqMwPuGun4IJBvmRAmN-63" value="Melakukan Pembayaran" style="ellipse;whiteSpace=wrap;html=1;" parent="1" vertex="1">
          <mxGeometry x="895" y="250" width="100" height="50" as="geometry" />
        </mxCell>
        <mxCell id="eZqMwPuGun4IJBvmRAmN-65" value="≪include≫" style="text;html=1;strokeColor=none;fillColor=none;align=center;verticalAlign=middle;whiteSpace=wrap;rounded=0;" parent="1" vertex="1">
          <mxGeometry x="895" y="190" width="60" height="30" as="geometry" />
        </mxCell>
        <mxCell id="eZqMwPuGun4IJBvmRAmN-27" style="edgeStyle=none;rounded=0;orthogonalLoop=1;jettySize=auto;html=1;exitX=0.5;exitY=0;exitDx=0;exitDy=0;entryX=0.5;entryY=1;entryDx=0;entryDy=0;dashed=1;strokeColor=default;endArrow=classic;endFill=1;" parent="1" source="eZqMwPuGun4IJBvmRAmN-26" target="eZqMwPuGun4IJBvmRAmN-23" edge="1">
          <mxGeometry relative="1" as="geometry" />
        </mxCell>
        <mxCell id="eZqMwPuGun4IJBvmRAmN-64" style="edgeStyle=none;rounded=0;orthogonalLoop=1;jettySize=auto;html=1;exitX=0.5;exitY=0;exitDx=0;exitDy=0;entryX=0.71;entryY=0.97;entryDx=0;entryDy=0;entryPerimeter=0;dashed=1;strokeColor=default;endArrow=classic;endFill=1;" parent="1" source="eZqMwPuGun4IJBvmRAmN-63" target="eZqMwPuGun4IJBvmRAmN-23" edge="1">
          <mxGeometry relative="1" as="geometry" />
        </mxCell>
      </root>
    </mxGraphModel>
  </diagram>
</mxfile>
